#N canvas 726 279 450 300 10;
#X obj 42 238 delwrite~ \$0-del 3000;
#X obj 118 25 vd~ \$0-del 3000;
#X obj 21 21 inlet~;
#X floatatom 102 136 5 0 0 0 - - -;
#X floatatom 104 228 5 0 0 0 - - -;
#X obj 103 160 * 0.01;
#X text 133 136 feedback;
#X obj 104 205 clip 0.01 1.05;
#X obj 36 106 *~;
#X obj 21 130 +~;
#X floatatom 102 118 5 0 0 0 - - -;
#X obj 256 112 sig~;
#X text 135 118 time;
#X obj 103 182 pow 0.3;
#X obj 279 44 r fb;
#X obj 279 21 r \$1-time;
#X obj 314 229 loadbang;
#X obj 314 254 f \$2;
#X obj 294 69 r \$1-fb;
#X obj 348 255 f \$3;
#X obj 21 261 outlet~;
#X connect 1 0 8 0;
#X connect 2 0 9 0;
#X connect 3 0 5 0;
#X connect 4 0 8 1;
#X connect 5 0 13 0;
#X connect 7 0 4 0;
#X connect 8 0 9 1;
#X connect 9 0 0 0;
#X connect 9 0 20 0;
#X connect 10 0 11 0;
#X connect 11 0 1 0;
#X connect 13 0 7 0;
#X connect 14 0 3 0;
#X connect 15 0 10 0;
#X connect 16 0 17 0;
#X connect 16 0 19 0;
#X connect 17 0 10 0;
#X connect 18 0 3 0;
#X connect 19 0 3 0;
#X coords 0 -1 1 1 85 54 1 100 100;
