#N canvas 845 214 777 665 10;
#X obj 103 125 vsl 10 60 -1 1 0 0 empty empty empty 0 -9 0 10 -262144
-1 -1 3100 1;
#X obj 106 190 hsl 60 11 -1 1 0 0 empty empty empty -2 -8 0 10 -262144
-1 -1 2800 1;
#X obj 136 122 vsl 30 46 0 6 0 0 empty empty empty 0 -9 0 10 -262144
-1 -1 1800 1;
#X text 120 127 y;
#X text 110 187 x;
#X text 145 141 z;
#X obj 113 350 s \$1/\$2-XYZ;
#X obj 111 319 pack f f f;
#X obj 129 275 t b f;
#X obj 170 276 t b f;
#X obj 272 315 print \$1/\$2-XYZ-fake;
#X floatatom 103 203 5 0 0 0 - - -, f 5;
#X floatatom 138 203 5 0 0 0 - - -, f 5;
#X floatatom 173 203 5 0 0 0 - - -, f 5;
#X connect 0 0 8 0;
#X connect 0 0 12 0;
#X connect 1 0 7 0;
#X connect 1 0 11 0;
#X connect 2 0 9 0;
#X connect 2 0 13 0;
#X connect 7 0 6 0;
#X connect 7 0 10 0;
#X connect 8 0 7 0;
#X connect 8 1 7 1;
#X connect 9 0 7 0;
#X connect 9 1 7 2;
#X coords 0 -1 1 1 120 120 1 100 100;
