#N canvas 0 23 847 631 10;
#X obj -330 91 hip~;
#X obj -269 87 mtof;
#X obj -330 113 hip~;
#X obj -330 134 hip~;
#X obj -330 156 hip~;
#X obj -269 222 mtof;
#X obj -330 226 lop~;
#X obj -330 248 lop~;
#X obj -330 269 lop~;
#X obj -330 291 lop~;
#X floatatom 142 198 4 0 0 2 - - -, f 4;
#X obj -391 -5 inlet~;
#X obj -390 594 outlet~;
#X floatatom 103 130 4 0 0 0 - - -, f 4;
#X floatatom 103 148 4 0 0 0 - - -, f 4;
#X obj 135 148 hsl 60 15 0 80 0 0 empty empty hpf 14 8 0 10 -262144
-1 -1 0 1;
#X obj 135 130 hsl 60 15 0 130 0 0 empty empty lpf 14 8 0 10 -262144
-1 -1 4092 1;
#X obj 68 120 int;
#X obj 68 138 int;
#X floatatom 103 166 4 0 0 0 - - -, f 4;
#X obj 135 167 hsl 60 15 0 100 0 0 empty empty filt-mix 8 8 0 10 -262144
-1 -1 2950 1;
#X obj 68 159 int;
#X obj -99 100 hip~;
#X obj -38 96 mtof;
#X obj -99 122 hip~;
#X obj -99 143 hip~;
#X obj -99 165 hip~;
#X obj -38 231 mtof;
#X obj -99 235 lop~;
#X obj -99 257 lop~;
#X obj -99 278 lop~;
#X obj -99 300 lop~;
#X obj -160 4 inlet~;
#X obj -159 603 outlet~;
#X floatatom 172 198 4 0 0 2 - - -, f 4;
#X obj 404 414 env~;
#X obj 201 132 vsl 10 80 0 104 0 0 empty empty empty 0 -9 0 10 -262144
-258113 -1 0 1;
#X obj 404 457 line;
#X msg 404 435 \$1 50;
#X obj 446 414 env~;
#X obj 446 457 line;
#X msg 446 435 \$1 50;
#X obj 211 132 vsl 10 80 0 104 0 0 empty empty empty 0 -9 0 10 -262144
-258113 -1 0 1;
#X obj -390 542 mix-mono;
#X obj -159 551 mix-mono;
#X obj 268 19 r \$1-hpf;
#X obj 306 65 r \$1-lpf;
#X obj 347 104 r \$1-filt-mix;
#X obj 347 127 f \$4;
#X text 136 182 levels out;
#X text 102 111 in midi units 0-130;
#X obj 111 22 loadbang;
#X obj 268 45 f \$3;
#X obj 306 88 f \$2;
#X msg 379 253 \; 1-hpf 5 \; 1-lpf 130 \; 1-filt-mix 50;
#X connect 0 0 2 0;
#X connect 1 0 0 1;
#X connect 1 0 2 1;
#X connect 1 0 3 1;
#X connect 1 0 4 1;
#X connect 2 0 3 0;
#X connect 3 0 4 0;
#X connect 4 0 6 0;
#X connect 5 0 6 1;
#X connect 5 0 7 1;
#X connect 5 0 8 1;
#X connect 5 0 9 1;
#X connect 6 0 7 0;
#X connect 7 0 8 0;
#X connect 8 0 9 0;
#X connect 9 0 43 1;
#X connect 11 0 0 0;
#X connect 11 0 43 0;
#X connect 13 0 27 0;
#X connect 13 0 5 0;
#X connect 14 0 23 0;
#X connect 14 0 1 0;
#X connect 15 0 18 0;
#X connect 16 0 17 0;
#X connect 17 0 13 0;
#X connect 18 0 14 0;
#X connect 19 0 43 2;
#X connect 19 0 44 2;
#X connect 20 0 21 0;
#X connect 21 0 19 0;
#X connect 22 0 24 0;
#X connect 23 0 22 1;
#X connect 23 0 24 1;
#X connect 23 0 25 1;
#X connect 23 0 26 1;
#X connect 24 0 25 0;
#X connect 25 0 26 0;
#X connect 26 0 28 0;
#X connect 27 0 28 1;
#X connect 27 0 29 1;
#X connect 27 0 30 1;
#X connect 27 0 31 1;
#X connect 28 0 29 0;
#X connect 29 0 30 0;
#X connect 30 0 31 0;
#X connect 31 0 44 1;
#X connect 32 0 22 0;
#X connect 32 0 44 0;
#X connect 35 0 38 0;
#X connect 37 0 36 0;
#X connect 37 0 10 0;
#X connect 38 0 37 0;
#X connect 39 0 41 0;
#X connect 40 0 42 0;
#X connect 40 0 34 0;
#X connect 41 0 40 0;
#X connect 43 0 12 0;
#X connect 43 0 35 0;
#X connect 44 0 33 0;
#X connect 44 0 39 0;
#X connect 45 0 52 0;
#X connect 46 0 53 0;
#X connect 47 0 48 0;
#X connect 48 0 20 0;
#X connect 51 0 48 0;
#X connect 51 0 52 0;
#X connect 51 0 53 0;
#X connect 52 0 15 0;
#X connect 53 0 16 0;
#X coords 0 -1 1 1 124 120 1 100 100;
