#N canvas 607 213 777 665 10;
#N canvas 0 22 450 278 (subpatch) 0;
#X array sf\$2 14335 float 2;
#X coords 0 1 14335 -1 200 140 1 0 0;
#X restore 94 107 graph;
#X obj 526 277 soundfiler;
#X floatatom 526 308 5 0 0 0 - - -;
#X obj 481 112 symbol \$1;
#X obj 481 91 bng 15 250 50 0 empty empty empty 17 7 0 10 -262144 -1
-1;
#X msg 308 106 \; sf\$1 normalize 0.5;
#X obj 308 86 f \$2;
#X obj 526 224 pack s s;
#X msg 526 251 read -resize \$1 \$2;
#X obj 683 147 f \$2;
#X obj 630 51 loadbang;
#X obj 630 72 t b b;
#X text 214 20 \$1 = folder name;
#X text 333 21 \$2 = file number/sf array num;
#X obj 590 42 bng 15 250 50 0 empty empty empty 17 7 0 10 -262144 -1
-1;
#X msg 482 137 symbol \$1;
#X msg 310 231 read -resize ./sfs3/1.wav sf20;
#X obj 396 325 print \$1-open;
#X msg 640 190 symbol sf\$1;
#X msg 503 189 symbol ../\$1/\$2.wav;
#X obj 532 165 pack s f;
#X obj 534 353 s length;
#X connect 1 0 2 0;
#X connect 2 0 21 0;
#X connect 3 0 15 0;
#X connect 4 0 3 0;
#X connect 6 0 5 0;
#X connect 7 0 8 0;
#X connect 8 0 1 0;
#X connect 8 0 17 0;
#X connect 9 0 18 0;
#X connect 9 0 20 1;
#X connect 10 0 11 0;
#X connect 11 0 3 0;
#X connect 11 1 9 0;
#X connect 14 0 11 0;
#X connect 15 0 20 0;
#X connect 16 0 1 0;
#X connect 18 0 7 1;
#X connect 19 0 7 0;
#X connect 20 0 19 0;
