#N canvas 87 341 736 391 10;
#X obj 26 96 tabread4~ sf\$1;
#X obj 27 -82 r length;
#X msg 26 27 0 \, \$1 \$2;
#X obj 26 48 line~;
#X obj 26 167 throw~ dac;
#X obj 28 -53 t f f;
#X obj 25 1 pack f f;
#X obj 28 136 *~;
#X obj 182 102 tgl 15 0 empty empty empty 17 7 0 10 -262144 -1 -1 1
1;
#X msg 186 138 \$1 25;
#X obj 188 167 line~;
#X obj 195 60 r \$1-play;
#X obj 219 86 r all-play;
#X obj 65 -19 / 44.1;
#X connect 0 0 7 0;
#X connect 1 0 5 0;
#X connect 2 0 3 0;
#X connect 3 0 0 0;
#X connect 5 0 6 0;
#X connect 5 1 13 0;
#X connect 6 0 2 0;
#X connect 7 0 4 0;
#X connect 8 0 9 0;
#X connect 9 0 10 0;
#X connect 10 0 7 1;
#X connect 11 0 8 0;
#X connect 12 0 8 0;
#X connect 13 0 6 1;
#X coords 0 -1 1 1 100 20 1 100 100;
