#N canvas 650 22 664 341 10;
#X obj 87 33 inlet~;
#X obj 186 223 +~;
#X obj 216 34 inlet~;
#X obj 180 273 outlet~;
#X obj 314 -47 inlet;
#X obj 375 168 line~;
#X msg 375 144 \$1 50;
#X obj 272 165 line~;
#X msg 272 141 \$1 50;
#X obj 152 190 *~;
#X obj 214 192 *~;
#X obj 272 84 cos;
#X floatatom 290 113 5 0 0 0 - - -;
#X floatatom 314 -1 5 0 0 0 - - -;
#X obj 314 49 * 3.14;
#X obj 314 23 / 200;
#X obj 360 87 sin;
#X floatatom 360 110 8 0 0 0 - - -;
#X obj 314 -24 clip 1e-05 100;
#X obj 500 -19 loadbang;
#X msg 497 2 0;
#X connect 0 0 9 0;
#X connect 1 0 3 0;
#X connect 2 0 10 0;
#X connect 4 0 18 0;
#X connect 5 0 10 1;
#X connect 6 0 5 0;
#X connect 7 0 9 1;
#X connect 8 0 7 0;
#X connect 9 0 1 0;
#X connect 10 0 1 1;
#X connect 11 0 12 0;
#X connect 11 0 8 0;
#X connect 13 0 15 0;
#X connect 14 0 11 0;
#X connect 14 0 16 0;
#X connect 15 0 14 0;
#X connect 16 0 17 0;
#X connect 16 0 6 0;
#X connect 18 0 13 0;
#X connect 19 0 20 0;
#X connect 20 0 18 0;
