#N canvas 663 28 617 744 10;
#X floatatom 182 -24 5 0 0 0 - - -, f 5;
#X obj 182 -45 delta 2;
#X obj 182 79 change;
#X obj 182 102 tgl 15 0 empty empty empty 17 7 0 10 -262144 -1 -1 0
1;
#X obj 182 -4 abs;
#X obj 208 154 spigot;
#X obj 182 27 t f f;
#X floatatom 208 180 5 0 0 0 - - -, f 5;
#X obj 133 -97 inlet;
#X obj 41 366 outlet, f 7;
#X obj 102 232 pack f f;
#X text 178 -123 input motion in x y or z;
#X text 237 -44 take 2nd order difference between last two values;
#X text 239 60 test for minimum difference value;
#X text 369 327 output on/off + delta at that moment;
#X text 252 424 output on/off + continuous delta at that moment;
#X obj 313 235 f \$1;
#X obj 256 262 pack f f f;
#X msg 256 285 \$3 \$1 \$2;
#X obj 260 126 t f f;
#X floatatom 361 186 5 0 0 0 - - -, f 5;
#X obj 256 319 print zz;
#X obj 134 -69 * 100;
#X obj 182 58 >= 5;
#X connect 0 0 4 0;
#X connect 1 0 0 0;
#X connect 2 0 3 0;
#X connect 3 0 5 1;
#X connect 3 0 19 0;
#X connect 4 0 6 0;
#X connect 5 0 7 0;
#X connect 6 0 23 0;
#X connect 6 1 5 0;
#X connect 7 0 10 1;
#X connect 7 0 17 0;
#X connect 8 0 22 0;
#X connect 10 0 9 0;
#X connect 16 0 17 2;
#X connect 17 0 18 0;
#X connect 19 1 17 1;
#X connect 20 0 17 2;
#X connect 22 0 1 0;
#X connect 23 0 2 0;
#X connect 23 0 10 0;
#X coords 0 -1 1 1 100 20 1 100 100;
