#N canvas 483 225 1137 644 12;
#X floatatom 91 111 3 0 0 0 - - -;
#X floatatom 118 111 3 0 0 0 - - -;
#X floatatom 145 111 3 0 0 0 - - -;
#X floatatom 172 111 3 0 0 0 - - -;
#X text 51 110 from;
#X obj 91 87 unpack 0 0 0 0 0;
#X floatatom 200 111 8 0 0 0 - - -;
#X obj 26 64 route received from;
#X floatatom 26 132 5 0 0 0 - - -;
#X text 66 132 bytes;
#X obj -27 858 print match_1;
#X obj -72 215 spigot;
#X obj -32 180 tgl 15 0 empty empty empty 17 7 0 10 -262144 -1 -1 1
1;
#X floatatom 142 808 5 0 0 0 - - -;
#X obj 142 844 + 2;
#X obj 142 892 clip 0 1;
#X obj 142 868 / 3;
#X floatatom 140 922 5 0 0 0 - - -;
#X obj 245 945 * 36;
#X obj 245 969 + 48;
#X obj 245 993 mtof;
#X obj 245 1017 osc~;
#X obj 245 1041 dac~;
#X obj -76 40 mrpeach/udpreceive 10000;
#X obj -68 248 mrpeach/unpackOSC;
#X obj -67 774 mrpeach/routeOSC /p1 /p1/head/y;
#X obj -69 275 mrpeach/pipelist;
#X obj -16 323 s kinectDATA;
#X obj 100 324 routeskeleton p1;
#X obj 882 53 unpack f f f;
#X floatatom 882 77 5 0 0 0 - - -;
#X floatatom 921 104 5 0 0 0 - - -;
#X floatatom 966 130 5 0 0 0 - - -;
#X obj 882 28 r p1/head-XYZ;
#X obj -56 687 puremapping/speedlimit 100;
#X obj -56 711 spigot;
#X obj -56 735 print;
#X obj 19 717 tgl 15 0 empty empty empty 17 7 0 10 -262144 -1 -1 0
1;
#X text -46 649 The first grouping prints to console. The second grouping
is the test code written by Dr. Snow during initial meeting.;
#X connect 5 0 0 0;
#X connect 5 1 1 0;
#X connect 5 2 2 0;
#X connect 5 3 3 0;
#X connect 5 4 6 0;
#X connect 7 0 8 0;
#X connect 7 1 5 0;
#X connect 11 0 24 0;
#X connect 12 0 11 1;
#X connect 13 0 14 0;
#X connect 14 0 16 0;
#X connect 15 0 17 0;
#X connect 16 0 15 0;
#X connect 17 0 18 0;
#X connect 18 0 19 0;
#X connect 19 0 20 0;
#X connect 20 0 21 0;
#X connect 21 0 22 0;
#X connect 23 0 11 0;
#X connect 23 1 7 0;
#X connect 24 0 26 0;
#X connect 24 1 26 1;
#X connect 25 1 13 0;
#X connect 26 0 25 0;
#X connect 26 0 27 0;
#X connect 26 0 34 0;
#X connect 29 0 30 0;
#X connect 29 1 31 0;
#X connect 29 2 32 0;
#X connect 33 0 29 0;
#X connect 34 0 35 0;
#X connect 35 0 36 0;
#X connect 37 0 35 1;
