#N canvas 203 424 418 350 10;
#X obj 188 72 unpack f f;
#X obj 188 116 tgl 15 0 empty empty empty 17 7 0 10 -262144 -1 -1 0
1;
#X floatatom 245 105 5 0 0 0 - - -, f 5;
#X obj 188 95 change;
#X obj 188 143 t f f;
#X obj 168 258 pack f f;
#X obj 194 294 polySynth;
#N canvas 1061 133 450 690 chooseNotes 1;
#X obj 75 373 tabread scale1;
#X obj 75 456 + 48;
#X obj 102 562 outlet;
#X obj 76 8 inlet;
#X obj 75 480 t f f;
#X obj 56 527 f;
#X obj 56 63 sel 0 1;
#X obj 124 302 tabread motive1;
#X obj 124 323 +;
#X obj 129 252 %;
#X obj 128 276 + 1;
#X obj 381 164 r %;
#X msg 129 165 1;
#X obj 129 186 +;
#X obj 157 187 f;
#X floatatom 89 279 5 0 0 0 - - -, f 5;
#X obj 188 177 tabread motive1;
#X floatatom 187 219 5 0 0 0 - - -, f 5;
#X msg 188 153 0;
#X obj 129 126 t b b;
#X obj 16 134 bng 15 250 50 0 empty empty empty 17 7 0 10 -262144 -1
-1;
#X obj -2 134 bng 15 250 50 0 empty empty empty 17 7 0 10 -262144 -1
-1;
#X obj 11 239 bng 15 250 50 0 empty empty empty 17 7 0 10 -262144 -1
-1;
#X obj 56 38 tgl 15 0 empty empty empty 17 7 0 10 -262144 -1 -1 0 1
;
#X msg 36 13 0;
#X floatatom 136 492 5 0 0 0 - - -, f 5;
#X obj 170 351 r \$1-trans;
#X obj 77 420 +;
#X obj 180 400 r \$1-oct;
#X obj 176 429 * 12;
#X connect 0 0 27 0;
#X connect 1 0 4 0;
#X connect 1 0 25 0;
#X connect 3 0 23 0;
#X connect 4 0 5 1;
#X connect 4 1 2 0;
#X connect 5 0 2 0;
#X connect 6 0 5 0;
#X connect 6 0 21 0;
#X connect 6 1 19 0;
#X connect 6 1 20 0;
#X connect 7 0 8 0;
#X connect 8 0 0 0;
#X connect 9 0 10 0;
#X connect 10 0 7 0;
#X connect 10 0 15 0;
#X connect 12 0 13 0;
#X connect 13 0 14 0;
#X connect 13 0 9 0;
#X connect 14 0 13 1;
#X connect 16 0 17 0;
#X connect 17 0 9 1;
#X connect 18 0 16 0;
#X connect 19 0 12 0;
#X connect 19 1 18 0;
#X connect 22 0 5 0;
#X connect 23 0 6 0;
#X connect 24 0 23 0;
#X connect 26 0 8 1;
#X connect 27 0 1 0;
#X connect 28 0 29 0;
#X connect 29 0 27 1;
#X restore 139 201 pd chooseNotes;
#X obj 188 3 inlet;
#X obj 189 30 motion-det;
#X connect 0 0 3 0;
#X connect 0 1 2 0;
#X connect 1 0 4 0;
#X connect 2 0 6 1;
#X connect 3 0 1 0;
#X connect 4 0 7 0;
#X connect 4 1 5 1;
#X connect 5 0 6 0;
#X connect 7 0 5 0;
#X connect 8 0 9 0;
#X connect 9 0 0 0;
