#N canvas 203 424 418 350 10;
#X obj 188 72 unpack f f;
#X obj 188 116 tgl 15 0 empty empty empty 17 7 0 10 -262144 -1 -1 0
1;
#X floatatom 245 105 5 0 0 0 - - -, f 5;
#X obj 188 95 change;
#N canvas 1061 133 450 690 chooseNotes 1;
#X obj 128 410 tabread scale1;
#X obj 128 614 + 48;
#X obj 128 641 outlet;
#X obj 76 8 inlet;
#X obj 128 302 tabread motive1;
#X obj 128 351 +;
#X obj 129 252 %;
#X obj 128 276 + 1;
#X msg 129 165 1;
#X obj 129 186 +;
#X obj 157 187 f;
#X floatatom 89 279 5 0 0 0 - - -, f 5;
#X obj 188 177 tabread motive1;
#X floatatom 187 219 5 0 0 0 - - -, f 5;
#X msg 188 153 0;
#X obj 129 126 t b b;
#X obj 56 38 tgl 15 0 empty empty empty 17 7 0 10 -262144 -1 -1 0 1
;
#X msg 36 13 0;
#X obj 174 379 r \$1-trans;
#X obj 128 507 +;
#X obj 208 447 r \$1-oct;
#X obj 208 476 * 12;
#X obj 76 78 metro 100;
#X obj 187 76 sel 1;
#X obj 211 535 r \$1-rand-oct;
#X obj 178 563 random;
#X obj 178 589 * 12;
#X obj 128 589 +;
#X obj 128 563 t f b;
#X connect 0 0 19 0;
#X connect 1 0 2 0;
#X connect 3 0 16 0;
#X connect 4 0 5 0;
#X connect 5 0 0 0;
#X connect 6 0 7 0;
#X connect 7 0 4 0;
#X connect 7 0 11 0;
#X connect 8 0 9 0;
#X connect 9 0 10 0;
#X connect 9 0 6 0;
#X connect 10 0 9 1;
#X connect 12 0 13 0;
#X connect 13 0 6 1;
#X connect 14 0 12 0;
#X connect 15 0 8 0;
#X connect 16 0 22 0;
#X connect 16 0 23 0;
#X connect 17 0 16 0;
#X connect 18 0 5 1;
#X connect 19 0 28 0;
#X connect 20 0 21 0;
#X connect 21 0 19 1;
#X connect 22 0 15 0;
#X connect 23 0 14 0;
#X connect 24 0 25 1;
#X connect 25 0 26 0;
#X connect 26 0 27 1;
#X connect 27 0 1 0;
#X connect 28 0 27 0;
#X connect 28 1 25 0;
#X restore 188 137 pd chooseNotes;
#X obj 188 3 inlet;
#X obj 189 30 motion-det;
#X obj 168 293 polySynth2;
#X obj 168 258 pack f f f;
#X msg 168 190 1;
#X obj 168 211 +;
#X obj 196 212 f;
#X obj 168 233 % 16;
#X obj 188 158 t b f;
#X connect 0 0 3 0;
#X connect 0 1 2 0;
#X connect 1 0 4 0;
#X connect 2 0 8 2;
#X connect 3 0 1 0;
#X connect 4 0 13 0;
#X connect 5 0 6 0;
#X connect 6 0 0 0;
#X connect 8 0 7 0;
#X connect 9 0 10 0;
#X connect 10 0 11 0;
#X connect 10 0 12 0;
#X connect 11 0 10 1;
#X connect 12 0 8 0;
#X connect 13 0 9 0;
#X connect 13 1 8 1;
