#N canvas 899 458 686 419 10;
#X obj 120 53 inlet;
#X obj 120 226 pack f f f f;
#X obj 205 68 inlet;
#X obj 120 172 poly 4;
#X obj 119 296 clone simpV2 4;
#X connect 0 0 3 0;
#X connect 1 0 4 0;
#X connect 2 0 1 3;
#X connect 3 0 1 0;
#X connect 3 1 1 1;
#X connect 3 2 1 2;
