#N canvas 185 27 1046 656 10;
#X obj 50 50 routePoint \$1 head;
#X obj 214 245 routePoint \$1 thumb_r;
#X obj 50 116 routePoint \$1 hip;
#X obj 50 93 routePoint \$1 spine;
#X obj 50 71 routePoint \$1 neck;
#X obj 50 141 routePoint \$1 shoulder_l;
#X obj 49 163 routePoint \$1 elbow_l;
#X obj 49 185 routePoint \$1 wrist_l;
#X obj 49 207 routePoint \$1 hand_l;
#X obj 215 141 routePoint \$1 shoulder_r;
#X obj 214 163 routePoint \$1 elbow_r;
#X obj 214 185 routePoint \$1 wrist_r;
#X obj 214 207 routePoint \$1 hand_r;
#X obj 50 286 routePoint \$1 hip_l;
#X obj 215 285 routePoint \$1 hip_r;
#X obj 50 305 routePoint \$1 knee_l;
#X obj 215 304 routePoint \$1 knee_r;
#X obj 50 324 routePoint \$1 ankle_l;
#X obj 50 343 routePoint \$1 foot_l;
#X obj 215 323 routePoint \$1 ankle_r;
#X obj 215 342 routePoint \$1 foot_r;
#X obj 49 226 routePoint \$1 handtip_l;
#X obj 214 226 routePoint \$1 handtip_r;
#X obj 49 245 routePoint \$1 thumb_l;
#N canvas 0 23 601 300 X-hands2spine 0;
#X obj 60 134 -;
#X obj 77 93 t b f;
#X msg 30 92 \$1;
#X obj 401 135 -;
#X obj 418 94 t b f;
#X msg 371 93 \$1;
#X obj 97 210 outlet;
#X obj 410 211 outlet;
#X msg 70 71 \$1;
#X msg 411 69 \$1;
#X obj 60 170 + 0;
#X obj 401 156 + 0;
#X obj 60 47 r \$1/hand_l-XYZ;
#X obj 28 24 r \$1/spine-XYZ;
#X obj 376 22 r \$1/spine-XYZ;
#X obj 271 42 r \$1/hand_r-XYZ;
#X connect 0 0 10 0;
#X connect 1 0 0 0;
#X connect 1 1 0 1;
#X connect 2 0 0 0;
#X connect 3 0 11 0;
#X connect 4 0 3 0;
#X connect 4 1 3 1;
#X connect 5 0 3 0;
#X connect 8 0 1 0;
#X connect 9 0 4 0;
#X connect 10 0 6 0;
#X connect 11 0 7 0;
#X connect 12 0 2 0;
#X connect 13 0 8 0;
#X connect 14 0 9 0;
#X connect 15 0 5 0;
#X restore 48 380 pd X-hands2spine;
#N canvas 0 23 450 300 Y-hands2spine 0;
#X obj 60 47 r \$1/hand_l-XYZ;
#X obj 60 134 -;
#X obj 77 109 t b f;
#X obj 77 67 r \$1/spine-XYZ;
#X obj 233 136 -;
#X obj 250 111 t b f;
#X obj 250 69 r \$1/spine-XYZ;
#X obj 233 49 r \$1/hand_r-XYZ;
#X msg 30 92 \$2;
#X msg 203 94 \$2;
#X obj 97 210 outlet;
#X obj 242 212 outlet;
#X msg 77 88 \$2;
#X msg 250 92 \$2;
#X obj 60 155 + 0;
#X obj 233 157 + 0;
#X floatatom 105 169 5 0 0 0 - - -;
#X connect 0 0 8 0;
#X connect 1 0 14 0;
#X connect 2 0 1 0;
#X connect 2 1 1 1;
#X connect 3 0 12 0;
#X connect 4 0 15 0;
#X connect 5 0 4 0;
#X connect 5 1 4 1;
#X connect 6 0 13 0;
#X connect 7 0 9 0;
#X connect 8 0 1 0;
#X connect 9 0 4 0;
#X connect 12 0 2 0;
#X connect 13 0 5 0;
#X connect 14 0 10 0;
#X connect 14 0 16 0;
#X connect 15 0 11 0;
#X restore 153 380 pd Y-hands2spine;
#N canvas 0 23 450 300 Z-hands2spine 0;
#X obj 60 47 r \$1/hand_l-XYZ;
#X obj 60 134 -;
#X obj 77 93 t b f;
#X obj 35 22 r \$1/spine-XYZ;
#X obj 233 136 -;
#X obj 250 95 t b f;
#X obj 199 29 r \$1/spine-XYZ;
#X obj 233 49 r \$1/hand_r-XYZ;
#X msg 30 92 \$3;
#X msg 203 94 \$3;
#X obj 97 210 outlet;
#X obj 242 212 outlet;
#X floatatom 311 83 5 0 0 0 - - -;
#X floatatom 181 131 5 0 0 0 - - -;
#X floatatom 102 145 5 0 0 0 - - -;
#X floatatom 9 144 5 0 0 0 - - -;
#X msg 83 70 \$3;
#X msg 258 72 \$3;
#X obj 60 155 + 0;
#X obj 233 157 + 0;
#X floatatom 97 178 5 0 0 0 - - -;
#X connect 0 0 16 0;
#X connect 1 0 18 0;
#X connect 2 0 1 0;
#X connect 2 1 1 1;
#X connect 2 1 14 0;
#X connect 3 0 8 0;
#X connect 4 0 19 0;
#X connect 5 0 4 0;
#X connect 5 1 4 1;
#X connect 6 0 9 0;
#X connect 7 0 17 0;
#X connect 8 0 1 0;
#X connect 8 0 15 0;
#X connect 9 0 4 0;
#X connect 9 0 13 0;
#X connect 16 0 2 0;
#X connect 17 0 5 0;
#X connect 18 0 10 0;
#X connect 18 0 20 0;
#X connect 19 0 11 0;
#X restore 257 380 pd Z-hands2spine;
#X obj 89 434 pack f f f;
#X obj 203 436 pack f f f;
#X obj 92 577 pack f f f;
#X obj 206 579 pack f f f;
#N canvas 0 23 450 300 X-feet2spine 0;
#X obj 60 154 -;
#X obj 77 113 t b f;
#X obj 77 67 r \$1/spine-XYZ;
#X msg 30 92 \$1;
#X obj 233 156 -;
#X obj 250 115 t b f;
#X obj 250 69 r \$1/spine-XYZ;
#X msg 203 114 \$1;
#X obj 97 230 outlet;
#X obj 242 232 outlet;
#X obj 60 47 r \$1/foot_l-XYZ;
#X obj 233 49 r \$1/foot_r-XYZ;
#X msg 86 90 \$1;
#X msg 259 92 \$1;
#X obj 60 190 + 0;
#X obj 233 176 + 0;
#X connect 0 0 14 0;
#X connect 1 0 0 0;
#X connect 1 1 0 1;
#X connect 2 0 12 0;
#X connect 3 0 0 0;
#X connect 4 0 15 0;
#X connect 5 0 4 0;
#X connect 5 1 4 1;
#X connect 6 0 13 0;
#X connect 7 0 4 0;
#X connect 10 0 3 0;
#X connect 11 0 7 0;
#X connect 12 0 1 0;
#X connect 13 0 5 0;
#X connect 14 0 8 0;
#X connect 15 0 9 0;
#X restore 51 523 pd X-feet2spine;
#N canvas 0 23 450 300 Y-feet2spine 0;
#X obj 60 154 -;
#X obj 77 113 t b f;
#X obj 77 67 r \$1/spine-XYZ;
#X obj 233 156 -;
#X obj 250 113 t b f;
#X obj 250 69 r \$1/spine-XYZ;
#X msg 30 92 \$2;
#X msg 203 114 \$2;
#X obj 97 210 outlet;
#X obj 242 212 outlet;
#X obj 60 47 r \$1/foot_l-XYZ;
#X obj 233 49 r \$1/foot_r-XYZ;
#X msg 84 89 \$2;
#X msg 257 91 \$2;
#X obj 60 175 + 0;
#X obj 233 178 + 0;
#X connect 0 0 14 0;
#X connect 1 0 0 0;
#X connect 1 1 0 1;
#X connect 2 0 12 0;
#X connect 3 0 15 0;
#X connect 4 0 3 0;
#X connect 4 1 3 1;
#X connect 5 0 13 0;
#X connect 6 0 0 0;
#X connect 7 0 3 0;
#X connect 10 0 6 0;
#X connect 11 0 7 0;
#X connect 12 0 1 0;
#X connect 13 0 4 0;
#X connect 14 0 8 0;
#X connect 15 0 9 0;
#X restore 156 523 pd Y-feet2spine;
#N canvas 0 23 450 300 Z-feet2spine 0;
#X obj 60 134 -;
#X obj 77 93 t b f;
#X obj 77 47 r \$1/spine-XYZ;
#X obj 233 136 -;
#X obj 250 95 t b f;
#X obj 250 49 r \$1/spine-XYZ;
#X msg 30 92 \$3;
#X msg 203 94 \$3;
#X obj 97 210 outlet;
#X obj 242 212 outlet;
#X obj 60 27 r \$1/foot_l-XYZ;
#X obj 233 29 r \$1/foot_r-XYZ;
#X obj 60 230 s \$1-LF2Spine;
#X obj 233 232 s \$1-RF2Spine;
#X msg 85 72 \$3;
#X msg 258 74 \$3;
#X obj 60 155 + 0;
#X obj 233 157 + 0;
#X connect 0 0 16 0;
#X connect 1 0 0 0;
#X connect 1 1 0 1;
#X connect 2 0 14 0;
#X connect 3 0 17 0;
#X connect 4 0 3 0;
#X connect 4 1 3 1;
#X connect 5 0 15 0;
#X connect 6 0 0 0;
#X connect 7 0 3 0;
#X connect 10 0 6 0;
#X connect 11 0 7 0;
#X connect 14 0 1 0;
#X connect 15 0 4 0;
#X connect 16 0 8 0;
#X connect 16 0 12 0;
#X connect 17 0 9 0;
#X connect 17 0 13 0;
#X restore 260 523 pd Z-feet2spine;
#X obj 382 426 pack f f f;
#X obj 408 570 pack f f f;
#N canvas 0 23 716 419 hand2hand-distance 0;
#X obj 60 47 r \$1/hand_l-XYZ;
#X obj 60 134 -;
#X obj 60 170 abs;
#X msg 30 92 \$1;
#X msg 91 115 \$1;
#X obj 233 136 -;
#X obj 233 157 abs;
#X obj 77 210 outlet;
#X obj 242 212 outlet;
#X obj 77 67 r \$1/hand_r-XYZ;
#X obj 250 69 r \$1/hand_r-XYZ;
#X obj 233 49 r \$1/hand_l-XYZ;
#X msg 203 94 \$2;
#X msg 264 117 \$2;
#X obj 421 135 -;
#X obj 421 156 abs;
#X obj 430 211 outlet;
#X obj 438 68 r \$1/hand_r-XYZ;
#X obj 421 48 r \$1/hand_l-XYZ;
#X msg 391 93 \$3;
#X msg 452 116 \$3;
#X obj 77 93 t b l;
#X obj 250 95 t b l;
#X obj 438 94 t b l;
#X connect 0 0 3 0;
#X connect 1 0 2 0;
#X connect 2 0 7 0;
#X connect 3 0 1 0;
#X connect 4 0 1 1;
#X connect 5 0 6 0;
#X connect 6 0 8 0;
#X connect 9 0 21 0;
#X connect 10 0 22 0;
#X connect 11 0 12 0;
#X connect 12 0 5 0;
#X connect 13 0 5 1;
#X connect 14 0 15 0;
#X connect 15 0 16 0;
#X connect 17 0 23 0;
#X connect 18 0 19 0;
#X connect 19 0 14 0;
#X connect 20 0 14 1;
#X connect 21 0 1 0;
#X connect 21 1 4 0;
#X connect 22 0 5 0;
#X connect 22 1 13 0;
#X connect 23 0 14 0;
#X connect 23 1 20 0;
#X restore 378 381 pd hand2hand-distance;
#N canvas 0 23 716 419 foot2foot-distance 0;
#X obj 60 134 -;
#X obj 60 170 abs;
#X msg 30 92 \$1;
#X msg 91 115 \$1;
#X obj 233 136 -;
#X obj 233 157 abs;
#X obj 77 210 outlet;
#X obj 242 212 outlet;
#X msg 203 94 \$2;
#X msg 264 117 \$2;
#X obj 421 135 -;
#X obj 421 156 abs;
#X obj 430 211 outlet;
#X msg 391 93 \$3;
#X msg 452 116 \$3;
#X obj 60 47 r \$1/foot_l-XYZ;
#X obj 77 67 r \$1/foot_r-XYZ;
#X obj 233 49 r \$1/foot_l-XYZ;
#X obj 250 69 r \$1/foot_r-XYZ;
#X obj 421 48 r \$1/foot_l-XYZ;
#X obj 438 68 r \$1/foot_r-XYZ;
#X obj 77 93 t b l;
#X obj 250 95 t b l;
#X obj 438 94 t b l;
#X connect 0 0 1 0;
#X connect 1 0 6 0;
#X connect 2 0 0 0;
#X connect 3 0 0 1;
#X connect 4 0 5 0;
#X connect 5 0 7 0;
#X connect 8 0 4 0;
#X connect 9 0 4 1;
#X connect 10 0 11 0;
#X connect 11 0 12 0;
#X connect 13 0 10 0;
#X connect 14 0 10 1;
#X connect 15 0 2 0;
#X connect 16 0 21 0;
#X connect 17 0 8 0;
#X connect 18 0 22 0;
#X connect 19 0 13 0;
#X connect 20 0 23 0;
#X connect 21 0 0 0;
#X connect 21 1 3 0;
#X connect 22 0 4 0;
#X connect 22 1 9 0;
#X connect 23 0 10 0;
#X connect 23 1 14 0;
#X restore 404 525 pd foot2foot-distance;
#X obj 89 471 s \$1-LH2Spine-XYZ;
#X obj 92 614 s \$1-LF2Spine-XYZ;
#X obj 203 471 s \$1-RH2Spine-XYZ;
#X obj 206 614 s \$1-RF2Spine-XYZ;
#X obj 408 614 s \$1-LF2RF-XYZ;
#X obj 382 470 s \$1-LH2RH-XYZ;
#X obj 588 516 s \$1-LH2Spine-XYZ;
#X obj 588 535 s \$1-LF2Spine-XYZ;
#X obj 697 516 s \$1-RH2Spine-XYZ;
#X obj 697 535 s \$1-RF2Spine-XYZ;
#X obj 846 534 s \$1-LF2RF-XYZ;
#X obj 846 516 s \$1-LH2RH-XYZ;
#X text 590 491 hands and feet distance from spine;
#X text 844 474 distance between hands;
#X text 844 488 distance between feet;
#X obj 452 105 s \$1/\$2-XYZ;
#X text 448 70 each of the routePoint objects contains a send for a
particular skeleton point using the folloing protocol:;
#X text 557 108 \$1 = skeleton name (p1 for player 1);
#X text 558 128 \$2 = tracked point on skeleton;
#X text 446 172 for example \, this receive object gets the XYZ coordinates
for the player 1 left hand:;
#X obj 449 204 r p1/hand_l-XYZ;
#X obj 449 259 unpack f f f;
#X floatatom 449 285 5 0 0 0 - - -;
#X floatatom 483 303 5 0 0 0 - - -;
#X floatatom 518 323 5 0 0 0 - - -;
#X obj 449 235 spigot;
#X obj 552 204 tgl 15 0 empty empty empty 17 7 0 10 -262144 -1 -1 0
1;
#X text 448 39 Sends coming from each routeSkeleton:;
#X text 572 204 <-turn on to see data;
#X text 589 429 <-additionally I calculate some distances between some
of the skeleton points and send them out as well:;
#X obj 655 271 r p1/spine-XYZ;
#X obj 655 299 unpack f f f;
#X floatatom 655 325 5 0 0 0 - - -;
#X floatatom 689 343 5 0 0 0 - - -;
#X floatatom 724 363 5 0 0 0 - - -;
#N canvas 0 23 903 565 hand2head-distance 0;
#X obj 251 137 -;
#X obj 268 96 t b f;
#X msg 221 95 \$1;
#X msg 261 71 \$1;
#X obj 251 158 + 0;
#X obj 121 44 r \$1/head-XYZ;
#X obj 226 24 r \$1/hip-XYZ;
#X obj 495 149 -;
#X obj 512 108 t b f;
#X obj 495 170 + 0;
#X obj 365 56 r \$1/head-XYZ;
#X obj 470 36 r \$1/hip-XYZ;
#X msg 465 107 \$2;
#X msg 505 83 \$2;
#X obj 726 139 -;
#X obj 743 98 t b f;
#X obj 726 160 + 0;
#X obj 596 46 r \$1/head-XYZ;
#X obj 701 26 r \$1/hip-XYZ;
#X msg 696 97 \$3;
#X msg 736 73 \$3;
#X obj 423 247 pack f f f;
#X obj 423 277 s \$1-head2hip-XYZ;
#X connect 0 0 4 0;
#X connect 1 0 0 0;
#X connect 1 1 0 1;
#X connect 2 0 0 0;
#X connect 3 0 1 0;
#X connect 4 0 21 0;
#X connect 5 0 2 0;
#X connect 6 0 3 0;
#X connect 7 0 9 0;
#X connect 8 0 7 0;
#X connect 8 1 7 1;
#X connect 9 0 21 1;
#X connect 10 0 12 0;
#X connect 11 0 13 0;
#X connect 12 0 7 0;
#X connect 13 0 8 0;
#X connect 14 0 16 0;
#X connect 15 0 14 0;
#X connect 15 1 14 1;
#X connect 16 0 21 2;
#X connect 17 0 19 0;
#X connect 18 0 20 0;
#X connect 19 0 14 0;
#X connect 20 0 15 0;
#X connect 21 0 22 0;
#X restore 588 571 pd hand2head-distance;
#X obj 855 592 s \$1-head2hip-XYZ;
#X text 852 571 distance from head to hips;
#X obj 882 295 print;
#X obj 882 249 spigot;
#X obj 915 224 tgl 15 0 empty empty empty 17 7 0 10 -262144 -1 -1 0
1;
#X obj 882 200 r p1/\$2-XYZ;
#N canvas 259 76 983 647 toFile 0;
#X obj 176 226 packCoords hand_l;
#X obj 176 167 packCoords hand_r;
#X obj 331 399 packCoords head;
#X obj 331 339 packCoords neck;
#X obj 331 290 packCoords spine;
#X obj 331 240 packCoords hip;
#X obj 331 189 packCoords shoulder_l;
#X obj 331 137 packCoords shoulder_r;
#X obj 331 82 packCoords elbow_l;
#X obj 331 30 packCoords elbow_r;
#X obj 176 340 packCoords wrist_l;
#X obj 176 285 packCoords wrist_r;
#X obj 176 118 packCoords handtip_l;
#X obj 176 74 packCoords handtip_r;
#X obj 176 33 packCoords hip_l;
#X obj 33 335 packCoords hip_r;
#X obj 33 285 packCoords knee_l;
#X obj 33 228 packCoords knee_r;
#X obj 33 178 packCoords ankle_l;
#X obj 33 124 packCoords ankle_r;
#X obj 33 75 packCoords foot_l;
#X obj 33 33 packCoords foot_r;
#X obj 331 621 textfile;
#X msg 507 547 clear;
#X msg 443 508 write danceTrial\$1.txt cr;
#X obj 309 509 list append;
#X obj 327 441 t b l;
#X msg 327 462 add;
#X obj 309 530 route list;
#X obj 699 180 print;
#X obj 713 127 spigot;
#X obj 713 151 print;
#X obj 788 133 tgl 15 0 empty empty empty 17 7 0 10 -262144 -1 -1 0
1;
#X obj 307 551 spigot;
#X obj 153 503 tgl 15 0 empty empty empty 17 7 0 10 -262144 -1 -1 0
1;
#X obj 572 412 metro;
#X floatatom 619 342 5 0 0 0 - - -;
#X obj 549 360 tgl 15 0 empty empty empty 17 7 0 10 -262144 -1 -1 0
1;
#X obj 327 422 list;
#X floatatom 481 439 5 0 0 0 - - -;
#X obj 468 459 f;
#X obj 439 439 bng 15 250 50 0 empty empty empty 17 7 0 10 -262144
-1 -1;
#X connect 0 0 11 0;
#X connect 1 0 0 0;
#X connect 2 0 38 0;
#X connect 3 0 2 0;
#X connect 4 0 3 0;
#X connect 5 0 4 0;
#X connect 6 0 5 0;
#X connect 7 0 6 0;
#X connect 8 0 7 0;
#X connect 9 0 8 0;
#X connect 10 0 9 0;
#X connect 11 0 10 0;
#X connect 12 0 1 0;
#X connect 13 0 12 0;
#X connect 14 0 13 0;
#X connect 15 0 14 0;
#X connect 16 0 15 0;
#X connect 17 0 16 0;
#X connect 18 0 17 0;
#X connect 19 0 18 0;
#X connect 20 0 19 0;
#X connect 21 0 20 0;
#X connect 23 0 22 0;
#X connect 24 0 22 0;
#X connect 24 0 23 0;
#X connect 25 0 28 0;
#X connect 26 0 27 0;
#X connect 26 1 25 1;
#X connect 27 0 25 0;
#X connect 28 0 33 0;
#X connect 30 0 31 0;
#X connect 32 0 30 1;
#X connect 33 0 22 0;
#X connect 34 0 33 1;
#X connect 36 0 35 1;
#X connect 37 0 35 0;
#X connect 38 0 26 0;
#X connect 39 0 40 1;
#X connect 40 0 24 0;
#X connect 41 0 40 0;
#X restore 862 352 pd toFile;
#X connect 24 0 27 0;
#X connect 24 1 28 0;
#X connect 25 0 27 1;
#X connect 25 1 28 1;
#X connect 26 0 27 2;
#X connect 26 1 28 2;
#X connect 27 0 38 0;
#X connect 28 0 40 0;
#X connect 29 0 39 0;
#X connect 30 0 41 0;
#X connect 31 0 29 0;
#X connect 31 1 30 0;
#X connect 32 0 29 1;
#X connect 32 1 30 1;
#X connect 33 0 29 2;
#X connect 33 1 30 2;
#X connect 34 0 43 0;
#X connect 35 0 42 0;
#X connect 36 0 34 0;
#X connect 36 1 34 1;
#X connect 36 2 34 2;
#X connect 37 0 35 0;
#X connect 37 1 35 1;
#X connect 37 2 35 2;
#X connect 58 0 63 0;
#X connect 59 0 60 0;
#X connect 59 1 61 0;
#X connect 59 2 62 0;
#X connect 63 0 59 0;
#X connect 64 0 63 1;
#X connect 68 0 69 0;
#X connect 69 0 70 0;
#X connect 69 1 71 0;
#X connect 69 2 72 0;
#X connect 77 0 76 0;
#X connect 78 0 77 1;
#X connect 79 0 77 0;
