#N canvas 503 59 777 665 10;
#X obj 302 58 r kinectDATA;
#X obj 302 184 pack f f f;
#X obj 368 260 s \$1/\$2-XYZ;
#X msg 302 157 \$1;
#X msg 335 157 \$1;
#X msg 368 157 \$1;
#X obj 214 531 outlet;
#X obj 473 260 print;
#X obj 206 156 symbol \$2;
#X obj 224 237 list append;
#X obj 250 210 t b l;
#X floatatom 460 80 5 0 0 0 - - -;
#X floatatom 470 103 5 0 0 0 - - -;
#X floatatom 480 126 5 0 0 0 - - -;
#X obj 200 277 list trim;
#X obj 169 318 s \$2-coords;
#X obj 364 230 print;
#X obj 288 287 symbol \$2;
#X obj 306 368 list append;
#X obj 332 341 t b l;
#X obj 282 408 list trim;
#X obj 302 79 routeOSC /\$1;
#X obj 302 100 routeOSC /\$2;
#X obj 302 123 routeOSC /x /y /z;
#X connect 0 0 21 0;
#X connect 1 0 2 0;
#X connect 1 0 19 0;
#X connect 1 0 10 0;
#X connect 3 0 1 0;
#X connect 4 0 1 1;
#X connect 5 0 1 2;
#X connect 9 0 14 0;
#X connect 10 0 9 0;
#X connect 10 1 9 1;
#X connect 11 0 1 0;
#X connect 12 0 1 1;
#X connect 13 0 1 2;
#X connect 14 0 15 0;
#X connect 17 0 18 0;
#X connect 18 0 20 0;
#X connect 19 0 17 0;
#X connect 19 1 18 1;
#X connect 20 0 6 0;
#X connect 21 0 22 0;
#X connect 22 0 23 0;
#X connect 23 0 3 0;
#X connect 23 1 4 0;
#X connect 23 2 5 0;
