#N canvas 274 94 416 308 10;
#X obj 87 118 soundfiler;
#N canvas 0 22 450 300 (subpatch) 0;
#X array \$1-sample 763757 float 2;
#X coords 0 1 763757 -1 120 30 1;
#X restore 194 70 graph;
#X obj 87 43 inlet;
#X obj 51 216 tabwrite lengths;
#X obj 50 196 pack f f;
#X obj 95 173 f \$1;
#X obj 87 146 t f b;
#X obj 42 173 / 48;
#X connect 0 0 6 0;
#X connect 2 0 0 0;
#X connect 4 0 3 0;
#X connect 5 0 4 1;
#X connect 6 0 7 0;
#X connect 6 1 5 0;
#X connect 7 0 4 0;
