#N canvas 422 76 561 479 10;
#X obj 159 -290 inlet;
#X obj 159 -262 unpack f f f;
#X obj 202 -16 +;
#X obj 262 -50 t b f;
#X obj 256 22 +;
#X obj 323 -23 t b f;
#X obj 159 -218 moses \$1;
#X obj 204 -195 moses \$2;
#X obj 203 -174 t b;
#X obj 202 -125 tgl 15 0 empty empty empty 17 7 0 10 -262144 -1 -1
0 1;
#X obj 202 -75 change;
#X msg 202 -153 1;
#X obj 250 -173 t b;
#X msg 249 -152 0;
#X obj 313 -174 t b;
#X obj 312 -125 tgl 15 0 empty empty empty 17 7 0 10 -262144 -1 -1
0 1;
#X msg 312 -153 1;
#X obj 360 -173 t b;
#X msg 359 -152 0;
#X obj 269 -218 moses \$3;
#X obj 314 -195 moses \$4;
#X obj 422 -173 t b;
#X obj 421 -124 tgl 15 0 empty empty empty 17 7 0 10 -262144 -1 -1
0 1;
#X msg 421 -152 1;
#X obj 469 -172 t b;
#X msg 468 -151 0;
#X obj 378 -217 moses \$5;
#X obj 423 -194 moses \$6;
#X obj 256 47 sel 3;
#X obj 262 -74 change;
#X obj 323 -51 change;
#X obj 256 149 outlet;
#X obj 210 78 bng 15 250 50 0 empty empty empty 17 7 0 10 -262144 -1
-1;
#X msg 256 75 1;
#X obj 296 47 t b;
#X msg 296 75 0;
#X obj 256 123 tgl 15 0 empty empty empty 17 7 0 10 -262144 -1 -1 0
1;
#X obj 67 -73 outlet;
#X floatatom 397 -239 5 0 0 0 - - -, f 5;
#X floatatom 269 -238 5 0 0 0 - - -, f 5;
#X floatatom 173 -238 5 0 0 0 - - -, f 5;
#X obj 327 144 s \$7-sect-trig;
#X connect 0 0 1 0;
#X connect 0 0 37 0;
#X connect 1 0 6 0;
#X connect 1 0 40 0;
#X connect 1 1 19 0;
#X connect 1 1 39 0;
#X connect 1 2 26 0;
#X connect 1 2 38 0;
#X connect 2 0 4 0;
#X connect 3 0 2 0;
#X connect 3 1 2 1;
#X connect 4 0 28 0;
#X connect 5 0 4 0;
#X connect 5 1 4 1;
#X connect 6 0 12 0;
#X connect 6 1 7 0;
#X connect 7 0 8 0;
#X connect 7 1 12 0;
#X connect 8 0 11 0;
#X connect 9 0 10 0;
#X connect 10 0 2 0;
#X connect 11 0 9 0;
#X connect 12 0 13 0;
#X connect 13 0 9 0;
#X connect 14 0 16 0;
#X connect 15 0 29 0;
#X connect 16 0 15 0;
#X connect 17 0 18 0;
#X connect 18 0 15 0;
#X connect 19 0 17 0;
#X connect 19 1 20 0;
#X connect 20 0 14 0;
#X connect 20 1 17 0;
#X connect 21 0 23 0;
#X connect 22 0 30 0;
#X connect 23 0 22 0;
#X connect 24 0 25 0;
#X connect 25 0 22 0;
#X connect 26 0 24 0;
#X connect 26 1 27 0;
#X connect 27 0 21 0;
#X connect 27 1 24 0;
#X connect 28 0 32 0;
#X connect 28 0 33 0;
#X connect 28 1 34 0;
#X connect 29 0 3 0;
#X connect 30 0 5 0;
#X connect 33 0 36 0;
#X connect 34 0 35 0;
#X connect 35 0 36 0;
#X connect 36 0 31 0;
#X connect 36 0 41 0;
#X coords 0 -1 1 1 174 40 1 100 100;
