#N canvas 146 23 514 746 10;
#X obj -68 -122 inlet;
#X obj -68 -30 mtof;
#X msg -53 85 \$1 20;
#X obj -53 105 line~;
#X obj -68 471 throw~ dac;
#X obj 168 103 tgl 15 0 empty empty empty 17 7 0 10 -262144 -1 -1 0
1;
#X obj 141 359 line~;
#X obj -68 426 *~;
#X obj 141 386 *~;
#X obj 140 412 *~;
#X obj -68 126 *~;
#X obj 134 -27 pow 1.5;
#X obj -49 376 mtof~;
#X obj -49 354 line~;
#X obj 134 -50 clip 0.05 1;
#X obj 285 230 * -1;
#X obj 285 251 + 1;
#X obj 240 321 pack f f;
#X msg 240 300 1;
#X obj -4 238 * -1;
#X obj -4 259 + 1;
#X obj -49 324 pack f f;
#X obj -49 208 t f f;
#X obj -49 180 f;
#X obj 285 293 + 20;
#X obj 285 272 * 250;
#X obj -4 280 * 250;
#X obj -49 280 * 20;
#X obj -49 301 + 80;
#X obj -68 397 vcf~ 4;
#X obj -53 62 pow 1.1;
#N canvas 0 23 875 737 band-limited-comparator 0;
#X obj 416 529 blosc~ comparator;
#X obj 416 415 phasor~;
#X obj 416 499 -~;
#X floatatom 416 360 5 0 0 0 - - -, f 5;
#X obj 511 396 osc~;
#X floatatom 511 363 5 0 0 0 - - -, f 5;
#X obj 511 426 *~;
#X floatatom 561 408 5 0 0 0 - - -, f 5;
#X obj 564 386 hsl 50 15 0 0.99 0 0 empty empty empty -2 -6 0 8 -262144
-1 -1 0 1;
#X text 626 386 depth;
#X obj 514 342 hsl 50 15 0.1 10 1 0 empty empty empty -2 -6 0 8 -262144
-1 -1 0 1;
#X text 578 342 mod freq;
#X obj 416 440 *~ 2;
#X obj 416 465 -~ 1;
#X obj 424 231 inlet;
#X obj 523 266 r mod-f;
#X obj 571 290 r mod-d;
#X obj 416 579 outlet~;
#X connect 0 0 17 0;
#X connect 1 0 12 0;
#X connect 2 0 0 0;
#X connect 3 0 1 0;
#X connect 4 0 6 0;
#X connect 5 0 4 0;
#X connect 6 0 2 1;
#X connect 7 0 6 1;
#X connect 8 0 7 0;
#X connect 10 0 5 0;
#X connect 12 0 13 0;
#X connect 13 0 2 0;
#X connect 14 0 3 0;
#X connect 15 0 5 0;
#X connect 16 0 7 0;
#X restore -68 24 pd band-limited-comparator;
#N canvas 0 23 573 588 envelope 0;
#X obj 171 112 r att;
#X obj 116 214 random 100;
#X obj 116 235 * 0.01;
#X obj 116 256 *;
#X obj 216 159 * 0.1;
#X obj 171 136 t f f;
#X obj 154 311 +;
#X obj 257 218 random 100;
#X obj 257 239 * 0.01;
#X obj 257 260 *;
#X obj 357 163 * 0.1;
#X obj 312 140 t f f;
#X obj 295 315 +;
#X obj 312 116 r rel;
#X obj 78 170 t b b;
#X obj 48 71 inlet;
#X obj 77 400 outlet;
#X obj 197 410 outlet;
#X connect 0 0 5 0;
#X connect 1 0 2 0;
#X connect 2 0 3 0;
#X connect 3 0 6 0;
#X connect 4 0 3 1;
#X connect 5 0 6 1;
#X connect 5 1 4 0;
#X connect 6 0 16 0;
#X connect 7 0 8 0;
#X connect 8 0 9 0;
#X connect 9 0 12 0;
#X connect 10 0 9 1;
#X connect 11 0 12 1;
#X connect 11 1 10 0;
#X connect 12 0 17 0;
#X connect 13 0 11 0;
#X connect 14 0 1 0;
#X connect 14 1 7 0;
#X connect 15 0 14 0;
#X restore 80 178 pd envelope;
#X obj -68 -49 t f b;
#X obj -4 301 + 10;
#X obj -6 103 t b b b;
#X obj -68 -74 unpack f f;
#X obj 53 299 del;
#X obj 141 322 pack f f;
#X obj 186 294 + 20;
#X msg 141 301 0;
#X obj 186 273 * 550;
#X connect 0 0 36 0;
#X connect 1 0 31 0;
#X connect 2 0 3 0;
#X connect 3 0 10 1;
#X connect 6 0 8 0;
#X connect 6 0 8 1;
#X connect 7 0 4 0;
#X connect 8 0 9 0;
#X connect 8 0 9 1;
#X connect 9 0 7 1;
#X connect 10 0 29 0;
#X connect 11 0 15 0;
#X connect 11 0 23 1;
#X connect 11 0 41 0;
#X connect 12 0 29 1;
#X connect 13 0 12 0;
#X connect 14 0 11 0;
#X connect 14 0 30 0;
#X connect 15 0 16 0;
#X connect 16 0 25 0;
#X connect 17 0 6 0;
#X connect 18 0 17 0;
#X connect 19 0 20 0;
#X connect 20 0 26 0;
#X connect 21 0 13 0;
#X connect 22 0 27 0;
#X connect 22 1 19 0;
#X connect 23 0 22 0;
#X connect 24 0 17 1;
#X connect 25 0 24 0;
#X connect 26 0 34 0;
#X connect 27 0 28 0;
#X connect 28 0 21 0;
#X connect 29 0 7 0;
#X connect 30 0 2 0;
#X connect 31 0 10 0;
#X connect 32 0 26 1;
#X connect 32 0 25 1;
#X connect 32 1 41 1;
#X connect 33 0 1 0;
#X connect 33 1 35 0;
#X connect 34 0 21 1;
#X connect 34 0 37 0;
#X connect 35 0 23 0;
#X connect 35 1 32 0;
#X connect 35 2 18 0;
#X connect 36 0 33 0;
#X connect 36 1 14 0;
#X connect 37 0 40 0;
#X connect 38 0 6 0;
#X connect 39 0 38 1;
#X connect 40 0 38 0;
#X connect 41 0 39 0;
#X coords 0 -1 1 1 85 20 1 100 100;
