#N canvas 146 23 514 746 10;
#X obj -68 -122 inlet;
#X obj -68 -30 mtof;
#X msg -52 48 \$1 20;
#X obj -53 68 line~;
#X obj -68 471 throw~ dac;
#X obj 168 103 tgl 15 0 empty empty empty 17 7 0 10 -262144 -1 -1 0
1;
#X obj -68 -74 unpack f f f;
#X obj 141 289 line~;
#X obj -68 426 *~;
#X obj 46 101 sel 1 0;
#X obj 141 316 *~;
#X obj 140 342 *~;
#X msg 141 263 0 1000;
#X obj -68 106 *~;
#X obj 84 -7 pow 1.5;
#X obj -68 3 phasor~;
#X obj -49 376 mtof~;
#X obj -49 354 line~;
#X msg 67 327 36 1000;
#X obj 84 -30 clip 0.05 1;
#X obj 262 151 * -1;
#X obj 262 172 + 1;
#X obj 217 242 pack f f;
#X msg 217 221 1;
#X obj -4 218 * -1;
#X obj -4 239 + 1;
#X obj -49 304 pack f f;
#X obj -49 188 t f f;
#X obj -49 160 f;
#X obj -4 281 + 20;
#X obj 262 214 + 20;
#X obj 262 193 * 250;
#X obj -4 260 * 250;
#X obj -49 260 * 20;
#X obj -49 281 + 80;
#X obj -68 397 vcf~ 4;
#X obj 56 -74 print \$1-voice;
#X obj 32 -7 pow 1.1;
#X connect 0 0 6 0;
#X connect 0 0 36 0;
#X connect 1 0 15 0;
#X connect 2 0 3 0;
#X connect 3 0 13 1;
#X connect 6 0 1 0;
#X connect 6 1 9 0;
#X connect 6 1 5 0;
#X connect 6 2 19 0;
#X connect 7 0 10 0;
#X connect 7 0 10 1;
#X connect 8 0 4 0;
#X connect 9 0 23 0;
#X connect 9 0 28 0;
#X connect 9 1 12 0;
#X connect 9 1 18 0;
#X connect 10 0 11 0;
#X connect 10 0 11 1;
#X connect 11 0 8 1;
#X connect 12 0 7 0;
#X connect 13 0 35 0;
#X connect 14 0 20 0;
#X connect 14 0 28 1;
#X connect 15 0 13 0;
#X connect 16 0 35 1;
#X connect 17 0 16 0;
#X connect 18 0 17 0;
#X connect 19 0 14 0;
#X connect 19 0 37 0;
#X connect 20 0 21 0;
#X connect 21 0 31 0;
#X connect 22 0 7 0;
#X connect 23 0 22 0;
#X connect 24 0 25 0;
#X connect 25 0 32 0;
#X connect 26 0 17 0;
#X connect 27 0 33 0;
#X connect 27 1 24 0;
#X connect 28 0 27 0;
#X connect 29 0 26 1;
#X connect 30 0 22 1;
#X connect 31 0 30 0;
#X connect 32 0 29 0;
#X connect 33 0 34 0;
#X connect 34 0 26 0;
#X connect 35 0 8 0;
#X connect 37 0 2 0;
#X coords 0 -1 1 1 85 20 1 100 100;
