#N canvas 0 72 922 552 12;
#X obj 475 330 *~;
#X obj 567 308 line~;
#X obj 567 185 bng 15 250 50 0 empty empty empty 17 7 0 10 -262144
-1 -1;
#X msg 567 274 1 \$1;
#X msg 618 274 0 \$1;
#X obj 618 244 f;
#X obj 641 211 r decay;
#X obj 567 244 f;
#X obj 627 158 r attack;
#X obj 604 216 del;
#X floatatom 475 159 5 0 0 0 - - -;
#X obj 475 198 mtof;
#X obj 475 438 *~ 0.5;
#X floatatom 638 179 5 0 0 0 - - -;
#X floatatom 648 230 5 0 0 0 - - -;
#X obj 475 487 throw~ synthV;
#X obj 476 25 inlet;
#X obj 475 232 osc~;
#X connect 0 0 12 0;
#X connect 1 0 0 1;
#X connect 2 0 7 0;
#X connect 2 0 9 0;
#X connect 3 0 1 0;
#X connect 4 0 1 0;
#X connect 5 0 4 0;
#X connect 6 0 5 1;
#X connect 6 0 14 0;
#X connect 7 0 3 0;
#X connect 8 0 7 1;
#X connect 8 0 9 1;
#X connect 8 0 13 0;
#X connect 9 0 5 0;
#X connect 10 0 11 0;
#X connect 10 0 2 0;
#X connect 11 0 17 0;
#X connect 12 0 15 0;
#X connect 16 0 10 0;
#X connect 17 0 0 0;
