#N canvas 0 72 713 573 12;
#X obj 83 329 *~;
#X obj 175 307 line~;
#X obj 175 184 bng 15 250 50 0 empty empty empty 17 7 0 10 -262144
-1 -1;
#X msg 175 273 1 \$1;
#X msg 226 273 0 \$1;
#X obj 226 243 f;
#X obj 249 210 r decay;
#X obj 175 243 f;
#X obj 235 157 r attack;
#X obj 212 215 del;
#X floatatom 83 158 5 0 0 0 - - -;
#X obj 83 197 mtof;
#X obj 83 437 *~ 0.5;
#X floatatom 246 178 5 0 0 0 - - -;
#X floatatom 256 229 5 0 0 0 - - -;
#X obj 84 29 inlet;
#X obj 82 486 throw~ synthZ;
#X obj 94 67 unpack f f;
#X obj 103 392 lop~;
#X obj 182 116 mtof;
#X obj 83 231 phasor~;
#X connect 0 0 18 0;
#X connect 1 0 0 1;
#X connect 2 0 7 0;
#X connect 2 0 9 0;
#X connect 3 0 1 0;
#X connect 4 0 1 0;
#X connect 5 0 4 0;
#X connect 6 0 5 1;
#X connect 6 0 14 0;
#X connect 7 0 3 0;
#X connect 8 0 7 1;
#X connect 8 0 9 1;
#X connect 8 0 13 0;
#X connect 9 0 5 0;
#X connect 10 0 11 0;
#X connect 10 0 2 0;
#X connect 11 0 20 0;
#X connect 12 0 16 0;
#X connect 15 0 17 0;
#X connect 17 0 10 0;
#X connect 17 1 19 0;
#X connect 18 0 12 0;
#X connect 19 0 18 1;
#X connect 20 0 0 0;
